HIERARCHY
ROOT Hips
{
  OFFSET 0 89.5177 0.535
  CHANNELS 6 Xposition Yposition Zposition Zrotation Xrotation Yrotation
  JOINT Spine
  {
    OFFSET 12.0259 -0.162855 1.69034e-005
    CHANNELS 3 Zrotation Xrotation Yrotation
    JOINT Spine1
    {
      OFFSET 15.3169 -0.0121922 0
      CHANNELS 3 Zrotation Xrotation Yrotation
      JOINT Spine2
      {
        OFFSET 15.3176 -0.0121908 0
        CHANNELS 3 Zrotation Xrotation Yrotation
        JOINT Neck
        {
          OFFSET 19.9142 1.56338 0
          CHANNELS 3 Zrotation Xrotation Yrotation
          JOINT Head
          {
            OFFSET 6.92651 0 0
            CHANNELS 3 Zrotation Xrotation Yrotation
            End Site
            {
              OFFSET 20.7666 0 0
            }
          }
          JOINT LeftShoulder
          {
            OFFSET -6.20654 0.708824 7.28219
            CHANNELS 3 Zrotation Xrotation Yrotation
            JOINT LeftArm
            {
              OFFSET 14.108 0 -1.52588e-005
              CHANNELS 3 Zrotation Xrotation Yrotation
              JOINT LeftForeArm
              {
                OFFSET 28.5802 0 0
                CHANNELS 3 Zrotation Xrotation Yrotation
                JOINT LeftHand
                {
                  OFFSET 27.092 0 0
                  CHANNELS 3 Zrotation Xrotation Yrotation
                  End Site
                  {
                    OFFSET 9.55928 -0.186424 0.145352
                  }
                }
              }
            }
          }
          JOINT RightShoulder
          {
            OFFSET -6.20654 0.708866 -7.28218
            CHANNELS 3 Zrotation Xrotation Yrotation
            JOINT RightArm
            {
              OFFSET 14.108 0 1.52588e-005
              CHANNELS 3 Zrotation Xrotation Yrotation
              JOINT RightForeArm
              {
                OFFSET 28.5802 0 0
                CHANNELS 3 Zrotation Xrotation Yrotation
                JOINT RightHand
                {
                  OFFSET 27.092 0 0
                  CHANNELS 3 Zrotation Xrotation Yrotation
                  End Site
                  {
                    OFFSET 9.55929 -0.186417 -0.145354
                  }
                }
              }
            }
          }
        }
      }
    }
  }
  JOINT LeftUpLeg
  {
    OFFSET 0.005 -0.535 8.837
    CHANNELS 3 Zrotation Xrotation Yrotation
    JOINT LeftLeg
    {
      OFFSET 39.9035 0 0
      CHANNELS 3 Zrotation Xrotation Yrotation
      JOINT LeftFoot
      {
        OFFSET 39.6689 0 0
        CHANNELS 3 Zrotation Xrotation Yrotation
        JOINT LeftToe
        {
          OFFSET 10.1624 13.6296 0
          CHANNELS 3 Zrotation Xrotation Yrotation
          End Site
          {
            OFFSET 8.38147 0 0
          }
        }
      }
    }
  }
  JOINT RightUpLeg
  {
    OFFSET 0.005 -0.535 -8.837
    CHANNELS 3 Zrotation Xrotation Yrotation
    JOINT RightLeg
    {
      OFFSET 39.9035 0 0
      CHANNELS 3 Zrotation Xrotation Yrotation
      JOINT RightFoot
      {
        OFFSET 39.6689 0 0
        CHANNELS 3 Zrotation Xrotation Yrotation
        JOINT RightToe
        {
          OFFSET 10.1624 13.6296 0
          CHANNELS 3 Zrotation Xrotation Yrotation
          End Site
          {
            OFFSET 8.38147 0 0
          }
        }
      }
    }
  }
}
MOTION
Frames:	6
Frame Time:	0.0333333
167.671 88.4618 -175.26 -168.32 -85.0984 102.225 0.0499967 -0.990505 -0.61912 0.089311 -1.98102 -1.23748 0.0893108 -1.98102 -1.23749 -8.30828e-012 -9.0191e-006 -5.27751e-005 11.287 -3.35273 -0.593935 -177.086 -27.8852 -83.7875 -23.5128 -46.7238 11.3484 -11.7893 3.18055e-015 4.77083e-015 -39.2355 -51.5271 -42.99 -178.328 19.5869 85.0234 -28.8085 33.9616 -4.90535 -7.73583 0 -7.95139e-016 -69.6926 64.7749 73.3128 -4.12774 10.9934 -178.084 -13.2899 -1.59028e-015 -3.97569e-016 14.0877 5.24045 -5.21701 90 3.10601e-017 -0 -7.2518 -8.15058 177.727 -15.4483 -1.59028e-015 -0 13.1845 -3.71409 1.43061 90 9.384e-021 -7.95139e-016 
167.673 88.4599 -175.286 -168.711 -85.0835 101.815 0.0438259 -0.98608 -0.619588 0.0770067 -1.97211 -1.23853 0.0770066 -1.97211 -1.23854 -8.30907e-012 -9.0191e-006 -5.27751e-005 11.5644 -3.71175 -0.22888 -177.11 -27.9611 -83.8539 -23.8366 -46.6961 11.1326 -11.9276 3.18055e-015 1.59028e-015 -38.0432 -51.8481 -41.7504 -178.35 19.6011 85.0918 -28.719 34.2215 -4.88943 -7.53726 9.54166e-015 7.95139e-016 -69.6521 64.7935 73.2678 -4.14031 10.9752 -178.068 -13.2984 -3.18055e-015 3.97569e-016 14.1176 5.24215 -5.20205 90 8.69683e-017 1.59028e-015 -7.22304 -8.17131 177.746 -15.4029 1.59028e-015 3.97569e-016 13.1867 -3.71537 1.43479 90 -1.53556e-020 1.59028e-015 
167.673 88.4595 -175.319 -169.213 -85.0957 101.292 0.0414624 -0.984922 -0.620401 0.0723514 -1.9728 -1.23691 0.0723512 -1.9728 -1.23692 -8.30828e-012 -9.0191e-006 -5.27751e-005 11.7952 -3.83759 0.1282 -177.141 -28.0465 -83.9373 -24.0682 -46.6256 11.0436 -11.9993 0 -0 -36.8293 -52.1574 -40.4907 -178.367 19.5998 85.1421 -28.6396 34.3805 -4.90558 -7.45274 -9.54166e-015 -7.95139e-016 -69.6358 64.7496 73.2505 -4.11568 10.9289 -178.048 -13.283 -1.59028e-015 -7.95139e-016 14.1179 5.24247 -5.20205 90 5.28022e-017 -0 -7.14494 -8.18552 177.773 -15.3272 -1.59028e-015 7.95139e-016 13.1816 -3.68838 1.43714 90 8.05697e-021 1.59028e-015 
167.673 88.4583 -175.355 -169.577 -85.0933 100.913 0.0364349 -0.983959 -0.621263 0.0666277 -1.97444 -1.24601 0.0666276 -1.97444 -1.24601 -8.30748e-012 -9.0191e-006 -5.27751e-005 12.066 -3.74429 0.478033 -177.16 -28.1028 -83.9876 -24.33 -46.8137 10.9482 -11.8906 -1.27222e-014 -4.77083e-015 -36.3236 -52.252 -39.9615 -178.352 19.6326 85.1059 -28.6322 34.5915 -4.88448 -7.43122 3.18055e-015 -0 -69.6681 64.7025 73.2864 -4.11596 10.9263 -178.03 -13.3014 0 -1.19271e-015 14.1566 5.26454 -5.21864 90 4.65902e-016 -7.95139e-016 -7.10515 -8.22369 177.79 -15.2831 4.77083e-015 3.97569e-016 13.1829 -3.66023 1.43859 90 -2.69198e-020 -0 
167.668 88.4529 -175.392 -169.497 -85.0963 100.988 0.033183 -0.983141 -0.621861 0.0555386 -1.97642 -1.24326 0.0555385 -1.97642 -1.24327 -8.30669e-012 -9.0191e-006 -5.27751e-005 12.3195 -3.46726 0.713019 -177.171 -28.1471 -84.0193 -24.4972 -46.968 10.9131 -11.6432 0 -0 -36.0504 -52.222 -39.6619 -178.368 19.6653 85.1597 -28.6671 34.8569 -4.91943 -7.41392 0 -0 -69.7087 64.6572 73.33 -4.08618 10.9325 -178.03 -13.3046 0 3.97569e-016 14.1832 5.26039 -5.20967 90 -9.00743e-016 -0 -7.06941 -8.15896 177.79 -15.2846 3.18056e-015 3.97569e-016 13.2146 -3.65315 1.45105 90 3.98109e-021 -7.95139e-016 
167.659 88.4477 -175.43 -169.404 -85.1097 101.078 0.03586 -0.982419 -0.622233 0.0608574 -1.97807 -1.24404 0.0608572 -1.97807 -1.24405 -8.30828e-012 -9.0191e-006 -5.27751e-005 12.5509 -3.16422 0.942285 -177.195 -28.1492 -84.0717 -24.5306 -47.1406 10.9408 -11.3761 3.18055e-015 6.36111e-015 -35.5574 -52.2459 -39.1358 -178.355 19.6534 85.1199 -28.7067 34.9038 -4.82689 -7.45836 3.18055e-015 7.95139e-016 -69.7487 64.5783 73.3781 -4.0521 10.9387 -178.031 -13.32 -3.18055e-015 -0 14.2123 5.26146 -5.2165 90 1.27346e-016 -7.95139e-016 -7.03611 -8.19625 177.782 -15.2978 0 -3.97569e-016 13.2476 -3.67499 1.46343 90 1.32703e-020 -3.18055e-015 
